<svg width="80" height="65" version="1.1" xmlns="http://www.w3.org/2000/svg">
  <circle cx="22" cy="19" r="12" stroke="black" stroke-width="3" fill="transparent" />
  <circle cx="58" cy="19" r="12" stroke="black" stroke-width="3" fill="transparent" />
  <path d="M35 20 C37 15 43 15 45 20" fill="transparent" stroke="black" stroke-width="3" />
  <path d="M50 42 Q66 45 65 55 L15 55 Q14 45 30 42 z" fill="black" />
  <path d="M37 21 Q40 19 43 21 L48 33 C55 38 55 43 47 43 Q40 53 33 43
C25 43 25 38 32 33 z" fill="white" stroke="black" stroke-width="2" />
  <polygon points="40 52 49 56 31 56" fill="white" />
  <line x1="16" y1="54" x2="16" y2="56" stroke="white" stroke-width="1" />
  <line x1="19" y1="54" x2="19" y2="56" stroke="white" stroke-width="1" />
  <line x1="22" y1="54" x2="22" y2="56" stroke="white" stroke-width="1" />
  <line x1="25" y1="54" x2="25" y2="56" stroke="white" stroke-width="1" />
  <line x1="28" y1="54" x2="28" y2="56" stroke="white" stroke-width="1" />
  <line x1="31" y1="54" x2="31" y2="56" stroke="white" stroke-width="1" />
  <line x1="34" y1="54" x2="34" y2="56" stroke="white" stroke-width="1" />
  <line x1="46" y1="54" x2="46" y2="56" stroke="white" stroke-width="1" />
  <line x1="49" y1="54" x2="49" y2="56" stroke="white" stroke-width="1" />
  <line x1="52" y1="54" x2="52" y2="56" stroke="white" stroke-width="1" />
  <line x1="55" y1="54" x2="55" y2="56" stroke="white" stroke-width="1" />
  <line x1="58" y1="54" x2="58" y2="56" stroke="white" stroke-width="1" />
  <line x1="61" y1="54" x2="61" y2="56" stroke="white" stroke-width="1" />
  <line x1="63" y1="54" x2="63" y2="56" stroke="white" stroke-width="1" />
</svg>